<?xml version="1.0" standalone="no"?>
<!DOCTYPE svg PUBLIC "-//W3C//DTD SVG 20010904//EN"
 "http://www.w3.org/TR/2001/REC-SVG-20010904/DTD/svg10.dtd">
<svg version="1.0" xmlns="http://www.w3.org/2000/svg"
 width="512.000000pt" height="512.000000pt" viewBox="0 0 512.000000 512.000000"
 preserveAspectRatio="xMidYMid meet">

<style>
g {fill: black}
@media (prefers-color-scheme: dark) {g {fill: white}}
</style>
<g transform="translate(0.000000,512.000000) scale(0.100000,-0.100000)"
fill="#000000" stroke="none">
<path d="M1565 4835 c-769 -86 -1156 -451 -1271 -1200 -18 -111 -19 -195 -19
-1075 0 -869 2 -965 18 -1070 114 -734 469 -1088 1202 -1197 109 -16 208 -18
1070 -18 1039 0 1035 0 1284 61 529 131 837 456 950 1004 49 234 52 324 48
1293 -4 989 -3 970 -67 1229 -123 495 -431 800 -930 922 -249 60 -232 60
-1240 62 -721 2 -952 -1 -1045 -11z m2060 -328 c499 -89 743 -300 850 -735 49
-195 50 -227 50 -1222 0 -1007 0 -1012 -54 -1222 -94 -366 -313 -585 -679
-679 -210 -54 -215 -54 -1222 -54 -995 0 -1027 1 -1222 50 -446 110 -670 382
-740 894 -19 139 -19 1903 0 2042 70 512 294 784 740 894 52 13 135 29 186 34
50 6 105 13 121 15 17 2 446 3 955 1 798 -2 937 -4 1015 -18z"/>
<path d="M1920 3684 c-14 -9 -109 -100 -212 -202 l-186 -185 -47 38 c-40 33
-55 39 -105 43 -72 5 -120 -20 -150 -79 -25 -48 -25 -92 -1 -144 21 -46 194
-219 235 -235 39 -14 102 -13 134 4 15 8 147 135 294 283 232 233 267 273 274
306 13 71 -31 154 -94 178 -38 15 -115 10 -142 -7z"/>
<path d="M2574 3371 c-61 -28 -89 -73 -89 -143 0 -63 19 -97 75 -135 l33 -23
607 0 607 0 33 23 c48 32 72 69 77 118 7 62 -29 125 -87 156 l-43 23 -586 0
c-550 0 -589 -2 -627 -19z"/>
<path d="M1940 2199 c-14 -5 -114 -98 -222 -206 l-197 -197 -45 42 c-74 68
-161 69 -227 3 -41 -41 -55 -88 -44 -148 10 -54 211 -256 273 -274 85 -25 99
-15 386 269 282 280 303 309 291 388 -14 99 -121 160 -215 123z"/>
<path d="M2580 1882 c-57 -25 -100 -88 -100 -146 0 -50 35 -111 80 -139 l35
-22 605 0 605 0 37 23 c49 31 82 99 75 154 -6 48 -30 84 -77 116 l-33 22 -606
-1 c-333 0 -613 -3 -621 -7z"/>
</g>
</svg>
